<svg width="25" height="24" viewBox="0 0 25 24" fill="none" xmlns="http://www.w3.org/2000/svg">
<path fill-rule="evenodd" clip-rule="evenodd" d="M21.9895 6.66448C21.5925 6.19609 21.0155 5.92669 20.4085 5.92669H9.66377C9.24978 5.92669 8.91378 6.26956 8.91378 6.69203C8.91378 7.11451 9.24978 7.45738 9.66377 7.45738H20.4085C20.6435 7.45738 20.7895 7.588 20.8555 7.66556C20.9215 7.74413 21.0275 7.91047 20.9935 8.14721L20.0445 14.8404C19.9695 15.365 19.5215 15.7609 19.0015 15.7609H8.09081C7.53782 15.7609 7.08683 15.3374 7.04083 14.7761L6.07786 3.06939C6.04986 2.72243 5.79486 2.43772 5.45887 2.37854L3.37792 2.01015C2.96493 1.9428 2.58094 2.2173 2.51095 2.63467C2.44095 3.05102 2.71394 3.44696 3.12193 3.51942L4.63189 3.78576L5.54587 14.9037C5.65787 16.265 6.75184 17.2916 8.09081 17.2916H19.0015C20.2625 17.2916 21.3485 16.3323 21.5285 15.0598L22.4784 8.36661C22.5654 7.7523 22.3864 7.13287 21.9895 6.66448ZM6.40795 20.455C6.40795 19.6029 7.08793 18.909 7.92291 18.909C8.75789 18.909 9.43687 19.6029 9.43687 20.455C9.43687 21.3071 8.75789 22 7.92291 22C7.08793 22 6.40795 21.3071 6.40795 20.455ZM17.6607 20.455C17.6607 19.6029 18.3396 18.909 19.1746 18.909C20.0096 18.909 20.6896 19.6029 20.6896 20.455C20.6896 21.3071 20.0096 22 19.1746 22C18.3396 22 17.6607 21.3071 17.6607 20.455ZM18.1488 10.4643C18.1488 10.8868 17.8128 11.2296 17.3988 11.2296H14.6258C14.2109 11.2296 13.8759 10.8868 13.8759 10.4643C13.8759 10.0418 14.2109 9.69893 14.6258 9.69893H17.3988C17.8128 9.69893 18.1488 10.0418 18.1488 10.4643Z" fill="white"/>
</svg>
